<?xml version="1.0" standalone="no"?>
<!DOCTYPE svg PUBLIC "-//W3C//DTD SVG 20010904//EN"
 "http://www.w3.org/TR/2001/REC-SVG-20010904/DTD/svg10.dtd">
<svg version="1.0" xmlns="http://www.w3.org/2000/svg"
 width="300.000000pt" height="300.000000pt" viewBox="0 0 300.000000 300.000000"
 preserveAspectRatio="xMidYMid meet">
<metadata>
Created by potrace 1.10, written by Peter Selinger 2001-2011
</metadata>
<g transform="translate(0.000000,300.000000) scale(0.100000,-0.100000)"
fill="#ffffff" stroke="none">
<path d="M715 2984 c-200 -36 -326 -99 -458 -228 -116 -115 -202 -290 -227
-461 -12 -90 -13 -1386 0 -1517 22 -231 91 -397 218 -526 113 -116 240 -182
427 -225 85 -20 126 -21 765 -24 581 -4 688 -2 770 12 395 66 643 295 741 685
23 90 24 111 24 400 0 283 -2 310 -22 378 -41 137 -119 237 -231 295 -79 40
-139 57 -242 66 l-75 6 4 30 c2 17 4 129 4 250 1 197 -1 228 -21 298 -60 218
-199 387 -397 483 -178 87 -185 88 -725 90 -380 2 -491 0 -555 -12z m939 -609
c50 -21 113 -80 138 -129 29 -57 35 -154 14 -210 -21 -55 -100 -131 -152 -145
-25 -7 -172 -11 -399 -11 -329 0 -363 2 -400 19 -91 42 -149 133 -148 236 0
103 55 188 148 231 49 24 54 24 406 24 297 0 363 -3 393 -15z m540 -1185 c63
-24 126 -87 147 -146 7 -21 13 -66 13 -100 -1 -117 -87 -219 -207 -244 -37 -7
-252 -10 -683 -8 -614 3 -630 3 -674 24 -49 23 -103 73 -126 117 -55 104 -24
251 69 321 73 55 59 55 759 55 628 1 649 0 702 -19z"/>
</g>
</svg>
