<?xml version="1.0" standalone="no"?>
<!DOCTYPE svg PUBLIC "-//W3C//DTD SVG 20010904//EN"
 "http://www.w3.org/TR/2001/REC-SVG-20010904/DTD/svg10.dtd">
<svg version="1.0" xmlns="http://www.w3.org/2000/svg"
 width="300.000000pt" height="300.000000pt" viewBox="0 0 300.000000 300.000000"
 preserveAspectRatio="xMidYMid meet">
<metadata>
Created by potrace 1.10, written by Peter Selinger 2001-2011
</metadata>
<g transform="translate(0.000000,300.000000) scale(0.100000,-0.100000)"
fill="#ffffff" stroke="none">
<path d="M1997 2763 c-23 -6 -37 -42 -37 -96 0 -52 23 -87 55 -87 34 0 46 30
43 102 -3 65 -22 90 -61 81z"/>
<path d="M1669 2676 c-10 -20 -7 -34 12 -81 25 -60 47 -80 79 -70 34 11 35 50
4 113 -24 46 -34 58 -56 60 -22 3 -30 -2 -39 -22z"/>
<path d="M2260 2640 c-35 -70 -36 -81 -11 -104 30 -27 53 -16 83 39 42 76 34
125 -19 125 -18 0 -29 -13 -53 -60z"/>
<path d="M1428 2509 c-40 -23 -10 -82 69 -136 29 -19 61 -8 69 24 6 22 -1 34
-44 75 -52 50 -65 55 -94 37z"/>
<path d="M2508 2480 c-26 -22 -50 -50 -53 -61 -8 -24 19 -59 45 -59 20 0 120
90 120 108 0 16 -37 52 -52 52 -7 0 -34 -18 -60 -40z"/>
<path d="M1885 2466 c-179 -57 -305 -204 -336 -392 -24 -146 32 -308 141 -415
53 -52 60 -63 60 -98 0 -29 -5 -43 -19 -51 -11 -5 -27 -29 -36 -53 -23 -61 -8
-114 45 -160 35 -30 40 -39 40 -76 0 -54 21 -94 63 -120 30 -19 50 -21 166
-21 146 0 174 8 211 60 12 18 24 52 27 84 5 44 10 56 33 69 31 19 60 72 60
111 0 38 -25 93 -49 108 -15 9 -21 23 -21 49 0 32 9 46 65 102 256 256 154
692 -186 798 -71 22 -202 25 -264 5z m279 -109 c149 -68 245 -250 217 -409
-17 -96 -53 -161 -131 -238 -67 -65 -70 -71 -70 -114 l0 -46 -165 0 -165 0 0
24 c0 45 -21 81 -81 138 -41 39 -70 79 -92 125 -29 62 -32 76 -32 168 0 91 3
106 31 165 48 100 129 172 230 204 71 23 187 15 258 -17z m62 -915 c19 -13 23
-39 8 -61 -15 -20 -23 -21 -223 -21 -217 0 -231 3 -231 45 0 42 14 45 230 45
113 0 210 -4 216 -8z m-76 -212 c0 -53 -16 -60 -141 -60 -81 0 -106 3 -121 17
-18 16 -25 63 -11 76 3 4 66 7 140 7 l133 0 0 -40z"/>
<path d="M2076 2264 c-23 -23 -19 -51 10 -71 58 -40 89 -73 114 -119 27 -51
57 -67 86 -44 46 39 -38 180 -136 230 -47 24 -54 24 -74 4z"/>
<path d="M1266 2231 c-10 -11 -16 -28 -14 -38 4 -25 75 -57 128 -58 45 0 45 0
45 35 0 34 -2 36 -60 57 -75 27 -78 27 -99 4z"/>
<path d="M2657 2228 c-45 -16 -58 -25 -64 -46 -4 -19 -1 -30 15 -43 21 -16 25
-16 84 1 62 19 78 32 78 62 0 19 -26 48 -43 47 -7 0 -38 -10 -70 -21z"/>
<path d="M1292 1941 c-53 -7 -72 -20 -72 -53 0 -34 26 -47 87 -41 76 8 93 17
93 53 0 27 -24 52 -47 49 -4 -1 -32 -5 -61 -8z"/>
<path d="M2638 1939 c-21 -12 -24 -64 -6 -76 22 -13 131 -22 150 -12 24 13 24
65 1 77 -29 15 -126 22 -145 11z"/>
<path d="M106 1338 c-14 -20 -16 -88 -16 -545 0 -510 1 -524 20 -543 18 -18
33 -20 168 -20 171 0 192 7 192 67 l0 36 93 -6 c54 -3 280 -42 552 -96 l460
-91 610 0 c693 0 659 -4 703 81 20 38 23 55 19 122 -4 83 -17 111 -71 151 -26
20 -42 21 -350 24 l-324 3 -5 41 c-6 44 -49 98 -101 125 -15 8 -131 46 -257
83 l-229 69 -83 69 c-230 193 -455 326 -591 351 -33 6 -142 11 -243 11 l-183
0 0 29 c0 56 -15 61 -190 61 -153 0 -159 -1 -174 -22z m264 -538 l0 -470 -90
0 -90 0 0 470 0 470 90 0 90 0 0 -470z m653 313 c112 -57 280 -171 417 -286
l84 -72 241 -72 c132 -40 251 -81 265 -91 22 -16 25 -28 28 -85 2 -56 0 -67
-16 -76 -13 -7 -81 3 -248 36 l-229 46 -163 93 c-90 52 -175 94 -188 94 -26 0
-48 -32 -40 -58 4 -10 86 -63 184 -119 l177 -100 245 -48 c169 -33 254 -46
275 -41 16 4 46 25 66 47 l36 39 314 0 c232 0 318 -3 327 -12 14 -14 16 -136
2 -158 -8 -13 -88 -15 -603 -18 l-593 -2 -459 91 c-335 66 -489 92 -567 96
l-108 6 0 374 0 374 224 -3 223 -3 106 -52z"/>
</g>
</svg>
