<?xml version="1.0" standalone="no"?>
<!DOCTYPE svg PUBLIC "-//W3C//DTD SVG 20010904//EN"
 "http://www.w3.org/TR/2001/REC-SVG-20010904/DTD/svg10.dtd">
<svg version="1.0" xmlns="http://www.w3.org/2000/svg"
 width="300.000000pt" height="300.000000pt" viewBox="0 0 300.000000 300.000000"
 preserveAspectRatio="xMidYMid meet">
<metadata>
Created by potrace 1.10, written by Peter Selinger 2001-2011
</metadata>
<g transform="translate(0.000000,300.000000) scale(0.100000,-0.100000)"
fill="#ffffff" stroke="none">
<path d="M1554 2527 c-257 -75 -438 -134 -467 -150 -93 -55 -147 -155 -147
-275 0 -85 13 -113 164 -355 65 -104 116 -190 114 -191 -40 -33 -724 -446
-736 -446 -35 0 -207 -32 -322 -60 -92 -23 -119 -34 -137 -55 -27 -31 -30 -71
-7 -103 30 -43 56 -45 183 -13 203 51 324 65 551 65 235 0 317 -10 695 -84
138 -27 293 -56 345 -64 353 -56 711 -43 1057 39 124 29 153 50 153 107 0 33
-47 88 -75 88 -9 0 -64 -11 -123 -24 -172 -39 -318 -59 -451 -60 l-125 -1
-112 180 c-62 99 -113 184 -113 188 -1 5 18 -8 41 -27 85 -73 232 -104 344
-71 120 35 202 106 257 223 28 60 31 77 31 157 0 80 -3 97 -31 157 -93 197
-304 284 -508 207 -82 -31 -184 -132 -215 -214 -28 -74 -36 -169 -21 -231 7
-25 11 -48 9 -49 -5 -5 -321 509 -320 519 1 6 119 44 264 86 145 42 277 84
294 93 48 25 110 101 124 152 46 164 -66 321 -235 331 -53 3 -110 -11 -481
-119z m526 -77 c28 -28 34 -63 16 -99 -18 -35 11 -24 -425 -150 -185 -54 -281
-86 -295 -100 -43 -43 -33 -67 169 -392 409 -658 465 -749 465 -754 0 -16
-179 10 -517 75 -262 51 -423 76 -557 88 l-79 7 272 168 c149 93 278 178 286
190 8 12 15 33 15 47 0 15 -58 118 -146 260 -81 129 -153 250 -161 269 -20 48
-9 104 30 144 29 30 59 41 357 127 179 51 359 103 400 116 95 29 144 30 170 4z
m295 -659 c132 -59 166 -240 67 -344 -48 -51 -97 -70 -171 -65 -76 4 -130 34
-171 94 -34 52 -40 154 -12 210 56 108 181 154 287 105z"/>
<path d="M600 709 c-143 -8 -274 -29 -439 -69 -92 -23 -120 -34 -138 -55 -27
-31 -30 -71 -7 -103 30 -43 56 -45 187 -13 217 53 322 65 547 65 238 0 313 -9
724 -90 409 -80 482 -88 756 -88 255 0 396 16 619 69 122 29 151 50 151 107 0
32 -47 88 -73 88 -8 0 -64 -11 -124 -25 -190 -43 -302 -56 -513 -62 -237 -6
-379 7 -665 61 -99 19 -238 46 -310 60 -264 50 -495 68 -715 55z"/>
</g>
</svg>
