<?xml version="1.0" standalone="no"?>
<!DOCTYPE svg PUBLIC "-//W3C//DTD SVG 20010904//EN"
 "http://www.w3.org/TR/2001/REC-SVG-20010904/DTD/svg10.dtd">
<svg version="1.0" xmlns="http://www.w3.org/2000/svg"
 width="300.000000pt" height="300.000000pt" viewBox="0 0 300.000000 300.000000"
 preserveAspectRatio="xMidYMid meet">
<metadata>
Created by potrace 1.10, written by Peter Selinger 2001-2011
</metadata>
<g transform="translate(0.000000,300.000000) scale(0.100000,-0.100000)"
fill="#ffffff" stroke="none">
<path d="M1955 2928 c-37 -20 -74 -61 -85 -93 -9 -26 -15 -31 -34 -28 -13 3
-30 -2 -39 -12 -32 -31 -19 -56 40 -82 24 -10 85 -60 142 -116 l101 -98 -21
-72 c-12 -40 -24 -75 -28 -79 -3 -4 -35 11 -71 33 -304 183 -695 202 -1017 49
-120 -57 -197 -112 -298 -214 -224 -226 -326 -487 -312 -801 7 -141 27 -237
77 -361 180 -450 661 -730 1135 -660 260 38 466 144 643 331 133 141 227 319
268 504 22 99 29 284 15 382 -23 154 -84 315 -166 440 l-47 69 37 65 c20 36
40 65 44 65 4 0 47 -37 95 -81 62 -58 85 -86 81 -98 -4 -9 -15 -47 -25 -85
l-19 -68 56 -59 c57 -60 81 -70 102 -45 6 7 38 62 70 121 l58 107 109 60 c127
70 134 75 134 97 0 18 -102 131 -118 131 -6 0 -39 -9 -74 -20 -34 -11 -71 -20
-80 -20 -18 0 -173 154 -173 172 0 5 88 58 195 118 234 130 232 127 144 220
-32 33 -67 63 -78 66 -12 2 -131 -29 -266 -70 l-245 -75 -95 99 c-52 54 -105
103 -117 109 -28 14 -112 14 -138 -1z m204 -183 c62 -63 122 -115 132 -115 9
0 122 32 250 70 127 39 237 70 242 70 12 0 47 -30 47 -41 0 -4 -84 -53 -187
-109 -104 -56 -194 -107 -200 -112 -30 -24 -10 -56 116 -188 l128 -135 69 19
c146 40 159 20 32 -49 -92 -50 -93 -50 -140 -135 -26 -47 -49 -89 -51 -95 -3
-6 -9 -6 -17 1 -9 9 -7 27 9 81 34 113 37 106 -110 242 -104 97 -137 121 -156
119 -21 -3 -43 -35 -135 -200 -97 -172 -113 -196 -129 -188 -10 6 -20 18 -23
28 -4 10 27 128 68 262 50 165 72 249 66 260 -5 9 -56 62 -114 117 -86 83
-106 107 -106 131 0 41 39 81 80 82 8 0 66 -52 129 -115z m-655 -336 c54 -64
71 -106 71 -179 0 -48 -6 -77 -23 -112 -32 -65 -136 -174 -312 -328 -160 -140
-208 -192 -239 -261 -25 -54 -26 -100 -5 -145 24 -50 68 -84 185 -144 197
-100 200 -113 23 -119 -99 -3 -125 0 -182 19 -115 39 -184 83 -344 222 -108
95 -168 137 -208 145 -18 3 -34 13 -37 21 -10 25 17 171 49 261 52 147 119
252 233 367 186 186 421 285 697 292 55 2 58 1 92 -39z m221 -12 c111 -37 275
-130 275 -156 0 -7 -16 -64 -35 -127 -26 -82 -33 -118 -26 -131 14 -28 128
-133 143 -133 23 0 34 13 82 98 l48 82 18 -22 c45 -58 155 -320 139 -332 -2
-1 -36 -24 -76 -50 -39 -26 -81 -62 -93 -81 -11 -18 -31 -83 -43 -144 -20 -94
-30 -119 -69 -178 -26 -40 -89 -109 -149 -164 -147 -135 -183 -171 -226 -231
-63 -86 -86 -150 -86 -245 -1 -73 -3 -82 -22 -88 -11 -4 -81 -9 -156 -12 -195
-8 -336 23 -502 110 -221 117 -404 336 -477 572 -26 87 -51 247 -40 259 13 13
73 -28 190 -129 135 -116 189 -155 275 -198 98 -49 175 -67 292 -67 164 0 243
36 243 110 0 52 -55 101 -197 173 -111 57 -163 101 -163 138 0 57 79 145 313
349 181 157 260 262 287 384 13 61 4 118 -30 188 l-28 58 26 -6 c15 -4 54 -16
87 -27z m662 -964 c-5 -165 -25 -257 -81 -378 -103 -222 -298 -412 -515 -502
-84 -34 -85 -34 -79 42 10 121 68 201 298 410 142 129 202 225 232 375 11 52
26 105 34 118 16 24 91 82 107 82 6 0 8 -55 4 -147z"/>
<path d="M1200 2858 c-70 -10 -103 -30 -98 -61 5 -36 30 -42 114 -30 73 10
104 27 104 55 0 11 -38 48 -47 47 -5 -1 -37 -6 -73 -11z"/>
<path d="M1463 2859 c-19 -19 -16 -57 6 -68 33 -18 158 -26 176 -11 21 18 19
57 -5 70 -32 17 -163 24 -177 9z"/>
<path d="M865 2764 c-75 -31 -89 -45 -81 -77 9 -38 37 -41 108 -12 85 36 105
56 90 90 -15 32 -39 32 -117 -1z"/>
<path d="M555 2582 c-62 -50 -75 -73 -55 -97 21 -25 54 -17 113 28 59 44 78
77 57 102 -21 26 -54 17 -115 -33z"/>
<path d="M306 2343 c-46 -59 -56 -89 -34 -111 26 -26 55 -13 102 48 35 45 47
67 44 88 -2 22 -9 28 -34 30 -28 3 -37 -4 -78 -55z"/>
<path d="M158 2103 c-24 -28 -60 -119 -56 -144 4 -30 33 -47 56 -33 16 10 61
93 76 140 14 44 -45 71 -76 37z"/>
<path d="M2700 1835 c-14 -16 -9 -80 10 -147 13 -44 51 -61 78 -35 14 14 14
25 3 84 -7 37 -19 78 -27 91 -17 25 -46 29 -64 7z"/>
<path d="M53 1795 c-26 -18 -52 -167 -33 -190 15 -18 54 -20 68 -2 13 16 36
153 29 172 -10 25 -42 35 -64 20z"/>
<path d="M2742 1498 c-5 -7 -13 -50 -16 -95 -7 -80 -7 -82 18 -98 35 -23 61
-7 70 42 10 62 7 138 -6 151 -16 16 -53 15 -66 0z"/>
<path d="M14 1443 c-14 -14 -16 -29 -10 -91 7 -81 17 -102 50 -102 33 0 46 19
46 65 -2 120 -38 175 -86 128z"/>
<path d="M2707 1158 c-16 -13 -57 -126 -57 -159 0 -25 27 -42 54 -35 41 10 84
164 54 194 -15 15 -30 15 -51 0z"/>
<path d="M72 1108 c-17 -17 -15 -45 9 -116 23 -67 46 -89 78 -73 28 16 30 31
11 94 -30 96 -64 129 -98 95z"/>
<path d="M2564 823 c-10 -16 -28 -45 -41 -65 -12 -21 -23 -49 -23 -62 0 -31
32 -51 59 -37 22 12 91 125 91 150 0 46 -60 56 -86 14z"/>
<path d="M205 786 c-19 -28 -12 -46 45 -124 25 -35 36 -43 57 -40 44 5 51 31
23 83 -31 57 -74 105 -94 105 -9 0 -23 -11 -31 -24z"/>
<path d="M2328 516 c-57 -52 -70 -80 -46 -104 24 -24 54 -12 111 46 58 58 67
78 45 100 -23 23 -53 11 -110 -42z"/>
<path d="M416 521 c-25 -28 -14 -52 47 -104 50 -43 66 -51 94 -48 17 1 34 36
27 55 -8 21 -122 116 -138 116 -7 0 -21 -9 -30 -19z"/>
<path d="M2070 323 c-25 -14 -53 -33 -62 -41 -26 -22 -23 -60 6 -73 20 -10 34
-5 94 30 74 43 88 61 72 92 -15 27 -56 24 -110 -8z"/>
<path d="M686 308 c-22 -31 -5 -53 77 -97 75 -41 102 -37 102 15 0 25 -9 34
-65 66 -75 44 -93 46 -114 16z"/>
<path d="M1753 190 c-78 -23 -83 -26 -83 -54 0 -45 23 -52 106 -31 87 21 113
45 90 80 -18 26 -38 28 -113 5z"/>
<path d="M1008 189 c-25 -14 -23 -56 5 -73 35 -23 145 -42 165 -30 20 13 28
52 14 66 -5 5 -38 16 -73 24 -35 8 -71 17 -79 19 -8 2 -23 0 -32 -6z"/>
<path d="M1405 141 l-70 -6 -3 -33 c-4 -42 21 -52 114 -45 73 6 94 15 94 42
-1 42 -29 51 -135 42z"/>
</g>
</svg>
